ModelForces
version=1
nRows=4
nColumns=155
inDegrees=no

This file contains the forces exerted on a model during a simulation.

A force is a generalized force, meaning that it can be either a force (N) or a torque (Nm).

Units are S.I. units (second, meters, Newtons, ...)
Angles are in degrees.

endheader
time	glut_med1_r	glut_med2_r	glut_med3_r	glut_min1_r	glut_min2_r	glut_min3_r	semimem_r	semiten_r	bifemlh_r	bifemsh_r	sar_r	add_long_r	add_brev_r	add_mag1_r	add_mag2_r	add_mag3_r	tfl_r	pect_r	grac_r	glut_max1_r	glut_max2_r	glut_max3_r	iliacus_r	psoas_r	quad_fem_r	gem_r	peri_r	rect_fem_r	vas_med_r	vas_int_r	vas_lat_r	med_gas_r	lat_gas_r	soleus_r	tib_post_r	flex_dig_r	flex_hal_r	tib_ant_r	per_brev_r	per_long_r	per_tert_r	ext_dig_r	ext_hal_r	glut_med1_l	glut_med2_l	glut_med3_l	glut_min1_l	glut_min2_l	glut_min3_l	semimem_l	semiten_l	bifemlh_l	bifemsh_l	sar_l	add_long_l	add_brev_l	add_mag1_l	add_mag2_l	add_mag3_l	tfl_l	pect_l	grac_l	glut_max1_l	glut_max2_l	glut_max3_l	iliacus_l	psoas_l	quad_fem_l	gem_l	peri_l	rect_fem_l	vas_med_l	vas_int_l	vas_lat_l	med_gas_l	lat_gas_l	soleus_l	tib_post_l	flex_dig_l	flex_hal_l	tib_ant_l	per_brev_l	per_long_l	per_tert_l	ext_dig_l	ext_hal_l	ercspn_r	ercspn_l	intobl_r	intobl_l	extobl_r	extobl_l	femur_lat_meniscii_r.femur_lat_r.force.X	femur_lat_meniscii_r.femur_lat_r.force.Y	femur_lat_meniscii_r.femur_lat_r.force.Z	femur_lat_meniscii_r.femur_lat_r.torque.X	femur_lat_meniscii_r.femur_lat_r.torque.Y	femur_lat_meniscii_r.femur_lat_r.torque.Z	femur_lat_meniscii_r.meniscus_lat_r.force.X	femur_lat_meniscii_r.meniscus_lat_r.force.Y	femur_lat_meniscii_r.meniscus_lat_r.force.Z	femur_lat_meniscii_r.meniscus_lat_r.torque.X	femur_lat_meniscii_r.meniscus_lat_r.torque.Y	femur_lat_meniscii_r.meniscus_lat_r.torque.Z	femur_med_meniscii_r.femur_med_r.force.X	femur_med_meniscii_r.femur_med_r.force.Y	femur_med_meniscii_r.femur_med_r.force.Z	femur_med_meniscii_r.femur_med_r.torque.X	femur_med_meniscii_r.femur_med_r.torque.Y	femur_med_meniscii_r.femur_med_r.torque.Z	femur_med_meniscii_r.meniscus_med_r.force.X	femur_med_meniscii_r.meniscus_med_r.force.Y	femur_med_meniscii_r.meniscus_med_r.force.Z	femur_med_meniscii_r.meniscus_med_r.torque.X	femur_med_meniscii_r.meniscus_med_r.torque.Y	femur_med_meniscii_r.meniscus_med_r.torque.Z	femur_med_tibia_r.tibia_upper_r.force.X	femur_med_tibia_r.tibia_upper_r.force.Y	femur_med_tibia_r.tibia_upper_r.force.Z	femur_med_tibia_r.tibia_upper_r.torque.X	femur_med_tibia_r.tibia_upper_r.torque.Y	femur_med_tibia_r.tibia_upper_r.torque.Z	femur_med_tibia_r.femur_med_r.force.X	femur_med_tibia_r.femur_med_r.force.Y	femur_med_tibia_r.femur_med_r.force.Z	femur_med_tibia_r.femur_med_r.torque.X	femur_med_tibia_r.femur_med_r.torque.Y	femur_med_tibia_r.femur_med_r.torque.Z	femur_lat_tibia_r.tibia_upper_r.force.X	femur_lat_tibia_r.tibia_upper_r.force.Y	femur_lat_tibia_r.tibia_upper_r.force.Z	femur_lat_tibia_r.tibia_upper_r.torque.X	femur_lat_tibia_r.tibia_upper_r.torque.Y	femur_lat_tibia_r.tibia_upper_r.torque.Z	femur_lat_tibia_r.femur_lat_r.force.X	femur_lat_tibia_r.femur_lat_r.force.Y	femur_lat_tibia_r.femur_lat_r.force.Z	femur_lat_tibia_r.femur_lat_r.torque.X	femur_lat_tibia_r.femur_lat_r.torque.Y	femur_lat_tibia_r.femur_lat_r.torque.Z	aACL_R	pACL_R	aPCL_R	pPCL_R	aMCL_R	mMCL_R	pMCL_R	aLCL_R	mLCL_R	pLCL_R	aPCL_L	pPCL_L	aMCL_L	aLCL_L
      0.20810428	      9.75570882	      7.17799281	      7.70610028	      3.33501231	      3.91298791	      4.12461965	      0.00000000	    167.31816125	    168.69237969	    326.83161521	    124.64024483	      7.13136995	      5.18317607	      3.69219843	      3.12140255	      5.19543411	      3.11595243	      2.81216337	     94.85009520	      4.63257646	      7.04473039	      5.28096411	     25.40247879	     16.08573551	      4.57149326	      3.30315409	      5.59489739	    111.58523755	     40.38922326	     29.80174881	     55.06141648	      0.00000000	      0.00000000	      0.00000000	      0.00000000	      0.00000000	      0.00000000	     33.95516788	      2.65392046	      4.83198331	     24.45662470	     50.91462037	     11.62231188	      9.75570882	      7.17799281	      7.70610028	      3.33501231	      3.91298791	      4.12461965	     10.55906597	      5.26581733	     10.30967984	      9.09755885	      1.90416646	      7.13136995	      5.18317607	      3.69219843	      3.12140255	      5.19543411	      4.84506097	      2.81216337	      1.96072687	      4.63257646	      7.04473039	      5.28096411	     25.40247879	     16.08573551	      4.57149326	      3.30315409	      5.59489739	     14.26876012	      0.00000000	      0.00000000	      0.00000000	     19.40052626	      9.06490808	     43.18977194	     47.36700369	      4.21991056	      3.67694666	     11.17880051	      5.91707458	     15.88998073	      2.48820469	      7.89116564	      2.52694089	     31.38115918	     31.38115918	     11.52104853	     11.52104853	     29.07235430	     29.07235430	    246.33449815	    160.87941024	     24.04727577	    -13.36451590	      5.82669743	     97.77846839	   -246.33449815	   -160.87941024	    -24.04727577	      4.23294631	     -7.00244751	      3.62905136	      0.51638757	     -0.01236253	     -0.10695343	      0.04251751	     -0.00844253	      0.20561569	     -0.51638757	      0.01236253	      0.10695343	     -0.00039525	      0.01021387	     -0.00244768	   -985.53772120	   -401.73386781	    294.27739676	     -8.88595830	     23.10142721	      1.98625363	    985.53772120	    401.73386781	   -294.27739676	    125.71815834	    -17.29393308	    397.21398586	    -99.14175706	    -49.96672747	    -28.29601188	      1.57928815	     -3.41043234	      0.48978246	     99.14175706	     49.96672747	     28.29601188	    -12.62314678	      2.43606139	     39.92558357	     -4.50364824	      0.00000000	    946.51993959	    592.85435943	     28.25798789	      0.00000000	      0.00000000	      0.00000000	      0.00000000	      0.00000000	      0.00000000	      0.00000000	      0.00000001	      0.00000000
      0.20863642	      9.74035888	      7.16750283	      7.69469931	      3.33034346	      3.90790114	      4.11812879	      0.00000000	    167.43424031	    169.21361237	    327.62170395	    124.56754009	      7.12082528	      5.17598732	      3.68684399	      3.11675810	      5.18701179	      3.10421110	      2.80819934	     94.80547852	      4.62579206	      7.03438630	      5.27307813	     25.38327859	     16.06389538	      4.56495252	      3.30000563	      5.58657408	     88.13976821	     40.47412396	     31.30647648	     55.22345923	      0.00000000	      0.00000000	      0.00000000	      0.00000000	      0.00000000	      0.00000000	     33.84131482	      2.65710962	      4.86768055	     24.37178323	     50.62017625	     11.54666706	      9.74035888	      7.16750283	      7.69469931	      3.33034346	      3.90790114	      4.11812879	     10.56995831	      5.25757948	     10.29184908	      9.08453012	      1.90151316	      7.12082528	      5.17598732	      3.68684399	      3.11675810	      5.18701179	      4.83984885	      2.80819934	      1.95794649	      4.62579206	      7.03438630	      5.27307813	     25.38327859	     16.06389538	      4.56495252	      3.30000563	      5.58657408	     14.24394965	      0.00000000	      0.00000000	      0.00000000	     19.37507728	      9.05226695	     43.11331809	     47.33343033	      4.20388353	      3.66253028	     11.15997285	      5.90637473	     15.86797841	      2.48483481	      7.88372992	      2.52477083	     31.33712696	     31.33712696	     11.50350772	     11.50350772	     29.05653873	     29.05653873	    245.44932489	    161.18145654	     22.71203580	    -12.82878103	      5.78613594	     97.39272423	   -245.44932489	   -161.18145654	    -22.71203580	      4.22474067	     -6.92984865	      3.70790799	      0.38565701	     -0.02262097	     -0.09003044	      0.03551011	     -0.00620201	      0.15359394	     -0.38565701	      0.02262097	      0.09003044	     -0.00007019	      0.00779595	     -0.00218294	   -980.20515205	   -398.13389531	    297.05352980	     -8.80409637	     23.12377326	      2.12080980	    980.20515205	    398.13389531	   -297.05352980	    126.76034323	    -17.23221526	    395.00273187	   -110.23128311	    -54.18976581	    -31.14478593	      1.71624538	     -3.78568484	      0.51426926	    110.23128311	     54.18976581	     31.14478593	    -13.87587540	      2.70709414	     44.39919393	     -4.83475288	      0.00000000	    950.76171587	    596.51151036	     27.85931756	      0.00000000	      0.00000000	      0.00000000	      0.00000000	      0.00000000	      0.00000000	      0.00000000	      0.00000001	      0.00000000
      0.20916856	      9.72511572	      7.15708647	      7.68337851	      3.32570713	      3.90285002	      4.11168372	      0.00000000	    167.57880752	    169.79828594	    328.62398181	    124.51336407	      7.11035476	      5.16884853	      3.68152613	      3.11214640	      5.17864892	      3.09309264	      2.80426297	     94.77868378	      4.61905542	      7.02411502	      5.26524776	     25.36421434	     16.04221078	      4.55845752	      3.29687969	      5.57827106	    102.14035624	     40.57116152	     30.30310591	     55.39158136	      0.00000000	      0.00000000	      0.00000000	      0.00000000	      0.00000000	      0.00000000	     33.72859206	      2.65716707	      4.89989708	     24.28396886	     50.33310082	     11.47360128	      9.72511572	      7.15708647	      7.68337851	      3.32570713	      3.90285002	      4.11168372	     10.57993331	      5.24939978	     10.27413479	      9.07159255	      1.89887833	      7.11035476	      5.16884853	      3.68152613	      3.11214640	      5.17864892	      4.83467340	      2.80426297	      1.95518552	      4.61905542	      7.02411502	      5.26524776	     25.36421434	     16.04221078	      4.55845752	      3.29687969	      5.57827106	     14.21931042	      0.00000000	      0.00000000	      0.00000000	     19.34963507	      9.03964062	     43.03728441	     47.30007593	      4.18788502	      3.64821566	     11.14127412	      5.89574619	     15.84610861	      2.48148886	      7.87627360	      2.52258286	     31.29340151	     31.29340151	     11.48609057	     11.48609057	     29.04083534	     29.04083534	    246.71616052	    158.32056805	     22.40198663	    -12.63102104	      5.80886900	     97.92111477	   -246.71616052	   -158.32056805	    -22.40198663	      4.14369888	     -6.95282093	      3.63553253	      0.30988967	     -0.02068483	     -0.07894161	      0.03107128	     -0.00494858	      0.12336938	     -0.30988967	      0.02068483	      0.07894161	      0.00000947	      0.00640575	     -0.00174201	   -975.94793282	   -387.85563397	    297.28674653	     -8.61483182	     23.05630017	      1.98113683	    975.94793282	    387.85563397	   -297.28674653	    126.67859270	    -17.15170528	    393.30797423	   -120.42067542	    -57.96106523	    -33.77696865	      1.83954526	     -4.13225532	      0.53750588	    120.42067542	     57.96106523	     33.77696865	    -15.03095938	      2.95653140	     48.50967848	     -3.92991587	      0.00000000	    954.43467749	    598.39260590	     28.26137824	      0.00000000	      0.00000000	      0.00000000	      0.00000000	      0.00000000	      0.00000000	      0.00000000	      0.00000001	      0.00000000
      0.20987068	      9.70516577	      7.14345462	      7.66856332	      3.31963921	      3.89623956	      4.10324943	      0.00000000	    167.79327054	    170.66108677	    330.06499163	    124.43338732	      7.09665230	      5.15950532	      3.67456531	      3.10611133	      5.16770502	      3.07894237	      2.79911122	     94.74384504	      4.61023943	      7.01067340	      5.25500061	     25.33926689	     16.01383571	      4.54995731	      3.29278942	      5.56734796	    111.73131444	     40.70856625	     29.60899669	     55.59480005	      0.00000000	      0.00000000	      0.00000000	      0.00000000	      0.00000000	      0.00000000	     33.58477406	      2.65164557	      4.93605130	     24.16414782	     49.96675474	     11.38086501	      9.70516577	      7.14345462	      7.66856332	      3.31963921	      3.89623956	      4.10324943	     10.59175379	      5.23869556	     10.25093933	      9.05466082	      1.89542989	      7.09665230	      5.15950532	      3.67456531	      3.10611133	      5.16770502	      4.82790047	      2.79911122	      1.95157212	      4.61023943	      7.01067340	      5.25500061	     25.33926689	     16.01383571	      4.54995731	      3.29278942	      5.56734796	     14.18706093	      0.00000000	      0.00000000	      0.00000000	     19.31608064	      9.02300554	     42.93760545	     47.25640029	      4.16687456	      3.62948649	     11.11679848	      5.88183102	     15.81745485	      2.47711045	      7.86640305	      2.51966890	     31.23617491	     31.23617491	     11.46329771	     11.46329771	     29.02028619	     29.02028619	    249.11521214	    156.62561952	     21.04491494	    -12.03308744	      5.85464787	     98.88619966	   -249.11521214	   -156.62561952	    -21.04491494	      4.07824889	     -6.97494221	      3.61543056	      0.19692749	     -0.01602401	     -0.05780187	      0.02274408	     -0.00314765	      0.07841195	     -0.19692749	      0.01602401	      0.05780187	      0.00001911	      0.00427909	     -0.00117280	   -971.08359381	   -382.30464576	    299.31469664	     -8.49149252	     23.04573874	      2.09442563	    971.08359381	    382.30464576	   -299.31469664	    127.39315600	    -17.07935559	    391.28562554	   -133.69224693	    -62.70108109	    -37.67655080	      2.00165601	     -4.60409866	      0.56510692	    133.69224693	     62.70108109	     37.67655080	    -16.72383008	      3.28798923	     53.86561913	     -3.80848868	      0.00000000	    959.22719034	    601.15804343	     27.40284685	     13.62890082	      0.00000000	      0.00000000	      0.00000000	      0.00000000	      0.00000000	      0.00000000	      0.00000001	      0.00000000
